ply
format ascii 1.0
comment Created by Blender 3.2.0 - www.blender.org
element vertex 9
property float x
property float y
property float z
property uchar red
property uchar green
property uchar blue
property uchar alpha
element face 12
property list uchar uint vertex_indices
end_header
108.764336 0.000000 -108.764336 78 202 255 255
-10.000000 0.000000 -10.000000 78 202 255 255
10.000000 0.000000 -10.000000 78 202 255 255
-108.764336 0.000000 108.764336 78 202 255 255
10.000000 0.000000 10.000000 78 202 255 255
-10.000000 0.000000 10.000000 78 202 255 255
108.764336 0.000000 108.764336 78 202 255 255
-108.764336 0.000000 -108.764336 78 202 255 255
0.000000 -1.283284 0.000000 78 202 255 255
3 0 1 2
3 3 4 5
3 4 6 0
3 0 7 1
3 2 4 0
3 1 7 3
3 3 6 4
3 5 1 3
3 1 5 8
3 4 2 8
3 5 4 8
3 2 1 8
