ply
format ascii 1.0
comment Created by Blender 3.2.0 - www.blender.org
element vertex 4
property float x
property float y
property float z
property float nx
property float ny
property float nz
property float s
property float t
property uchar red
property uchar green
property uchar blue
property uchar alpha
element face 90
property list uchar uint vertex_indices
end_header
1.209721 0.083213 0.500000 0.723821 -0.620884 0.300976 0.000000 0.000000 136 102 50 255
1.209721 0.497971 0.500000 0.696429 0.679909 0.229587 1.000000 0.000000 136 102 50 255
1.047548 0.497971 0.840642 0.425373 0.604384 0.673631 1.000000 1.000000 136 102 50 255
1.047548 0.166840 0.840642 0.479273 -0.448502 0.754416 0.000000 1.000000 137 105 55 255
4 0 1 2 3
4 0 1 2 3
4 0 1 2 3
4 0 1 2 3
4 0 1 2 3
4 0 1 2 3
4 0 1 2 3
4 0 1 2 3
4 0 1 2 3
4 0 1 2 3
4 0 1 2 3
4 0 1 2 3
4 0 1 2 3
4 0 1 2 3
4 0 1 2 3
4 0 1 2 3
4 0 1 2 3
4 0 1 2 3
4 0 1 2 3
4 0 1 2 3
4 0 1 2 3
4 0 1 2 3
4 0 1 2 3
4 0 1 2 3
4 0 1 2 3
4 0 1 2 3
4 0 1 2 3
4 0 1 2 3
4 0 1 2 3
4 0 1 2 3
4 0 1 2 3
4 0 1 2 3
4 0 1 2 3
4 0 1 2 3
4 0 1 2 3
4 0 1 2 3
4 0 1 2 3
4 0 1 2 3
4 0 1 2 3
4 0 1 2 3
4 0 1 2 3
4 0 1 2 3
4 0 1 2 3
4 0 1 2 3
4 0 1 2 3
4 0 1 2 3
4 0 1 2 3
4 0 1 2 3
4 0 1 2 3
4 0 1 2 3
4 0 1 2 3
4 0 1 2 3
4 0 1 2 3
4 0 1 2 3
4 0 1 2 3
4 0 1 2 3
4 0 1 2 3
4 0 1 2 3
4 0 1 2 3
4 0 1 2 3
4 0 1 2 3
4 0 1 2 3
4 0 1 2 3
4 0 1 2 3
4 0 1 2 3
4 0 1 2 3
4 0 1 2 3
4 0 1 2 3
4 0 1 2 3
4 0 1 2 3
4 0 1 2 3
4 0 1 2 3
4 0 1 2 3
4 0 1 2 3
3 0 1 2
3 0 1 2
3 0 1 2
3 0 1 2
3 0 1 2
3 0 1 2
3 0 1 2
3 0 1 2
3 0 1 2
3 0 1 2
3 0 1 2
3 0 1 2
3 0 1 2
3 0 1 2
3 0 1 2
3 0 1 2
