# Blender v3.2.0 OBJ File: ''
# www.blender.org
mtllib hull.mtl
v 0.080566 0.244385 -0.328369
v -0.080566 0.244385 -0.328369
v 0.130127 0.230225 -0.170898
v -0.130127 0.230225 -0.170898
v 0.174805 0.124512 0.036133
v -0.174805 0.124512 0.036133
v 0.155762 0.115234 0.276855
v -0.155762 0.115234 0.276855
v 0.112305 0.115234 0.478027
v -0.112305 0.115234 0.478027
v 0.158203 0.215332 -0.176025
v 0.109375 0.220215 -0.317383
v 0.170410 0.254883 -0.163330
v 0.119629 0.265381 -0.333008
v 0.130127 0.230225 -0.170898
v 0.080566 0.244385 -0.328369
v -0.130127 0.230225 -0.170898
v -0.080566 0.244385 -0.328369
v -0.170410 0.254883 -0.163330
v -0.119629 0.265381 -0.333008
v -0.158203 0.215332 -0.176025
v -0.109375 0.220215 -0.317383
v 0.000000 0.174561 -0.412598
v 0.109375 0.220215 -0.317383
v 0.112793 0.079834 -0.372559
v 0.169189 0.083740 -0.270996
v 0.122803 -0.036865 -0.219727
v 0.188232 0.077881 -0.143066
v 0.100098 -0.068359 0.328125
v 0.155762 0.115234 0.276855
v 0.120605 0.055176 0.448486
v 0.112305 0.115234 0.478027
v 0.000000 0.055176 0.448486
v -0.112305 0.115234 0.478027
v -0.120605 0.055176 0.448486
v -0.155762 0.115234 0.276855
v -0.100098 -0.068359 0.327881
v -0.188232 0.077881 -0.143066
v -0.122803 -0.036865 -0.219727
v -0.169189 0.083740 -0.270996
v -0.112793 0.079834 -0.372803
v 0.100098 -0.068359 0.328125
v -0.000000 -0.098389 -0.111084
v 0.122803 -0.036865 -0.219727
v -0.000000 -0.044678 -0.327393
v 0.112793 0.079834 -0.372559
v 0.000000 0.056152 -0.411865
v 0.000000 0.174561 -0.412598
v -0.112793 0.079834 -0.372803
v -0.109375 0.220215 -0.317383
v -0.169189 0.083740 -0.270996
v -0.158203 0.215332 -0.176025
v -0.188232 0.077881 -0.143066
v -0.174805 0.124512 0.036133
v -0.155762 0.115234 0.276855
v 0.080566 0.244385 -0.328369
v 0.119629 0.265381 -0.333008
v 0.000000 0.193115 -0.460693
v 0.109375 0.220215 -0.317383
v 0.000000 0.174561 -0.412598
v 0.174805 0.124512 0.036133
v 0.158203 0.215332 -0.176025
v 0.179443 0.217041 -0.057129
v 0.170410 0.254883 -0.163330
v 0.130127 0.230225 -0.170898
v -0.158203 0.215332 -0.176025
v -0.174805 0.124512 0.036133
v -0.179443 0.217041 -0.057129
v -0.130127 0.230225 -0.170898
v -0.170410 0.254883 -0.163330
v 0.000000 0.055176 0.448486
v -0.100098 -0.068359 0.327881
v -0.000000 -0.130371 0.464600
v -0.000000 -0.098389 -0.111084
v 0.100098 -0.068359 0.328125
v -0.080566 0.244385 -0.328369
v 0.000000 0.193115 -0.460693
v -0.119629 0.265381 -0.333008
v -0.109375 0.220215 -0.317383
v -0.100098 -0.068359 0.327881
v -0.122803 -0.036865 -0.219727
v -0.000000 -0.098389 -0.111084
v -0.000000 -0.044678 -0.327393
v 0.000000 0.056152 -0.411865
v -0.000000 -0.044678 -0.327393
v -0.112793 0.079834 -0.372803
v -0.122803 -0.036865 -0.219727
v 0.109375 0.220215 -0.317383
v 0.158203 0.215332 -0.176025
v 0.169189 0.083740 -0.270996
v 0.188232 0.077881 -0.143066
v 0.158203 0.215332 -0.176025
v 0.174805 0.124512 0.036133
v 0.188232 0.077881 -0.143066
v 0.155762 0.115234 0.276855
v -0.080566 0.244385 -0.328369
v 0.080566 0.244385 -0.328369
v 0.000000 0.193115 -0.460693
v -0.109375 0.220215 -0.317383
v 0.000000 0.193115 -0.460693
v 0.000000 0.174561 -0.412598
v 0.100098 -0.068359 0.328125
v 0.120605 0.055176 0.448486
v 0.000000 0.055176 0.448486
v -0.100098 -0.068359 0.327881
v 0.000000 0.055176 0.448486
v -0.120605 0.055176 0.448486
v 0.174805 0.124512 0.036133
v 0.179443 0.217041 -0.057129
v 0.130127 0.230225 -0.170898
v -0.179443 0.217041 -0.057129
v -0.170410 0.254883 -0.163330
v -0.158203 0.215332 -0.176025
v 0.100098 -0.068359 0.328125
v 0.000000 0.055176 0.448486
v -0.000000 -0.130371 0.464600
vt -1.068359 0.220703
vt -1.068359 -0.216797
vt -0.267578 -0.351562
vt -0.267578 0.354492
vt 0.734375 -0.472656
vt 0.734375 0.475586
vt 1.734375 -0.420898
vt 1.734375 0.423828
vt 2.736328 -0.302734
vt 2.736328 0.305664
vt 0.718750 1.094727
vt 0.718750 0.905273
vt 0.978516 0.905273
vt 0.978516 1.094727
vt 0.718750 0.905273
vt 0.718750 1.094727
vt 0.718750 1.094727
vt 0.718750 0.905273
vt 0.978516 0.905273
vt 0.978516 1.094727
vt 0.718750 0.905273
vt 0.718750 1.094727
vt 0.000000 0.934570
vt 0.107422 1.004883
vt 0.044922 0.787109
vt 0.158203 0.792969
vt 0.216797 0.605469
vt 0.302734 0.784180
vt 0.681641 0.589844
vt 0.609375 0.856445
vt 0.802734 0.765625
vt 0.835938 0.856445
vt 0.802734 0.765625
vt 0.835938 0.856445
vt 0.802734 0.765625
vt 0.609375 0.856445
vt 0.681641 0.589844
vt 0.302734 0.784180
vt 0.216797 0.605469
vt 0.158203 0.792969
vt 0.044922 0.787109
vt 0.681641 0.589844
vt 0.337891 0.510742
vt 0.216797 0.605469
vt 0.095703 0.593750
vt 0.044922 0.787109
vt 0.000000 0.750000
vt 0.000000 0.934570
vt 0.044922 0.787109
vt 0.107422 1.004883
vt 0.158203 0.792969
vt 0.265625 0.997070
vt 0.302734 0.784180
vt 0.503906 0.856445
vt 0.609375 0.856445
vt 0.718750 1.094727
vt 0.978516 1.094727
vt 0.978516 0.905273
vt 0.718750 1.094727
vt 0.718750 0.905273
vt 0.949219 1.094727
vt 0.718750 0.905273
vt 0.978516 1.013672
vt 0.978516 0.905273
vt 0.718750 0.905273
vt 0.718750 1.094727
vt 0.949219 0.905273
vt 0.978516 1.012695
vt 0.718750 1.094727
vt 0.978516 1.094727
vt 1.005859 0.735352
vt 0.906250 0.603516
vt 1.017578 0.497070
vt 0.605469 0.538086
vt 0.906250 0.603516
vt 0.718750 1.094727
vt 0.978516 0.905273
vt 0.978516 1.094727
vt 0.718750 1.094727
vt 0.681641 0.589844
vt 0.216797 0.605469
vt 0.337891 0.510742
vt 0.095703 0.593750
vt 0.000000 0.750000
vt 0.095703 0.593750
vt 0.044922 0.787109
vt 0.216797 0.605469
vt 0.107422 1.004883
vt 0.265625 0.997070
vt 0.158203 0.792969
vt 0.302734 0.784180
vt 0.265625 0.997070
vt 0.503906 0.856445
vt 0.302734 0.784180
vt 0.609375 0.856445
vt -1.068359 -0.216797
vt -1.068359 0.220703
vt -1.775391 0.001953
vt 0.718750 1.094727
vt 0.978516 0.905273
vt 0.718750 0.905273
vt 0.681641 0.589844
vt 0.802734 0.765625
vt 0.802734 0.765625
vt 0.681641 0.589844
vt 0.802734 0.765625
vt 0.802734 0.765625
vt 0.949219 1.094727
vt 0.978516 1.013672
vt 0.718750 0.905273
vt 0.978516 1.012695
vt 0.978516 1.094727
vt 0.718750 1.094727
vt 0.906250 0.603516
vt 1.005859 0.735352
vt 1.017578 0.497070
vn 0.0000 0.9901 -0.1406
vn 0.0000 0.9677 0.2522
vn 0.0000 0.9998 0.0196
vn 0.9467 -0.2401 -0.2147
vn 0.7867 -0.4783 -0.3904
vn 0.4883 0.7481 -0.4493
vn 0.5997 0.7990 0.0450
vn -0.4881 0.8688 0.0839
vn -0.6275 0.7096 0.3206
vn 0.6275 0.7096 0.3206
vn 0.4881 0.8688 0.0839
vn -0.4883 0.7481 -0.4493
vn -0.5997 0.7990 0.0449
vn -0.7867 -0.4782 -0.3904
vn -0.9467 -0.2401 -0.2147
vn -0.0000 0.1796 -0.9837
vn 0.7947 0.2831 -0.5370
vn 0.6430 -0.2287 -0.7309
vn 0.9470 -0.0430 -0.3183
vn 0.6716 -0.6989 -0.2460
vn 0.9905 -0.1368 -0.0156
vn 0.7672 -0.5915 0.2479
vn 0.9840 -0.1269 0.1250
vn 0.6333 -0.4476 0.6313
vn 0.4086 -0.3558 0.8405
vn 0.0000 -0.4393 0.8983
vn -0.4086 -0.3558 0.8405
vn -0.6333 -0.4476 0.6313
vn -0.9840 -0.1269 0.1249
vn -0.7672 -0.5915 0.2479
vn -0.9905 -0.1368 -0.0156
vn -0.6716 -0.6989 -0.2460
vn -0.9470 -0.0429 -0.3183
vn -0.6421 -0.2283 -0.7318
vn 0.0000 -0.9933 -0.1151
vn 0.0000 -0.8290 -0.5592
vn -0.0000 -0.3419 -0.9397
vn -0.6421 -0.2283 -0.7319
vn -0.7947 0.2831 -0.5369
vn -0.9470 -0.0430 -0.3183
vn -0.9622 0.2323 -0.1425
vn -0.9905 -0.1367 -0.0156
vn -0.9935 0.1035 0.0468
vn -0.9840 -0.1269 0.1250
vn 0.0000 -0.2696 -0.9630
vn -0.0000 -0.9326 -0.3609
vn 0.4412 0.6267 0.6424
vn 0.5606 0.7383 0.3750
vn -0.4412 0.6267 0.6423
vn -0.5606 0.7383 0.3750
vn -0.0000 -0.4394 0.8983
vn -0.0000 -0.8281 0.5605
vn -0.0000 -0.9933 -0.1152
vn 0.0000 -0.2695 -0.9630
vn -0.7867 -0.4783 -0.3904
vn -0.0000 -0.9934 -0.1151
vn 0.9622 0.2323 -0.1425
vn 0.9905 -0.1367 -0.0156
vn 0.9622 0.2322 -0.1425
vn 0.9935 0.1035 0.0468
vn 0.0000 0.9323 -0.3616
vn 0.7672 -0.5916 0.2479
vn 0.6333 -0.4476 0.6314
vn -0.7672 -0.5915 0.2480
vn 0.4412 0.6267 0.6423
vn -0.5606 0.7383 0.3751
vn -0.5997 0.7990 0.0450
vn 0.0000 -0.8282 0.5605
usemtl mat_hul05
s 1
f 1/1/1 2/2/1 4/3/2
f 1/1/1 4/3/2 3/4/2
f 3/4/2 4/3/2 6/5/2
f 3/4/2 6/5/2 5/6/2
f 5/6/2 6/5/2 8/7/3
f 5/6/2 8/7/3 7/8/3
f 7/8/3 8/7/3 10/9/3
f 7/8/3 10/9/3 9/10/3
f 11/11/4 12/12/5 14/13/6
f 11/11/4 14/13/6 13/14/7
f 13/14/7 14/13/6 16/15/8
f 13/14/7 16/15/8 15/16/9
f 17/17/10 18/18/11 20/19/12
f 17/17/10 20/19/12 19/20/13
f 19/20/13 20/19/12 22/21/14
f 19/20/13 22/21/14 21/22/15
f 23/23/16 24/24/17 25/25/18
f 24/24/17 26/26/19 25/25/18
f 25/25/18 26/26/19 27/27/20
f 26/26/19 28/28/21 27/27/20
f 27/27/20 28/28/21 29/29/22
f 28/28/21 30/30/23 29/29/22
f 29/29/22 30/30/23 31/31/24
f 30/30/23 32/32/25 31/31/24
f 31/31/24 32/32/25 33/33/26
f 32/32/25 34/34/27 33/33/26
f 33/33/26 34/34/27 35/35/28
f 34/34/27 36/36/29 35/35/28
f 35/35/28 36/36/29 37/37/30
f 36/36/29 38/38/31 37/37/30
f 37/37/30 38/38/31 39/39/32
f 38/38/31 40/40/33 39/39/32
f 39/39/32 40/40/33 41/41/34
f 42/42/22 43/43/35 44/44/20
f 43/43/35 45/45/36 44/44/20
f 44/44/20 45/45/36 46/46/18
f 45/45/36 47/47/37 46/46/18
f 46/46/18 47/47/37 48/48/16
f 47/47/37 49/49/38 48/48/16
f 48/48/16 49/49/38 50/50/39
f 49/49/38 51/51/40 50/50/39
f 50/50/39 51/51/40 52/52/41
f 51/51/40 53/53/42 52/52/41
f 52/52/41 53/53/42 54/54/43
f 53/53/42 55/55/44 54/54/43
f 56/56/8 57/57/6 58/58/45
f 57/57/6 59/59/5 58/58/45
f 58/58/45 59/59/5 60/60/46
f 61/61/47 62/62/4 63/63/48
f 62/62/4 64/64/7 63/63/48
f 63/63/48 64/64/7 65/65/9
f 66/66/15 67/67/49 68/68/50
f 67/67/49 69/69/10 68/68/50
f 68/68/50 69/69/10 70/70/13
f 71/71/51 72/72/30 73/73/52
f 72/72/30 74/74/53 73/73/52
f 73/73/52 74/74/53 75/75/22
f 76/76/11 77/77/54 78/78/12
f 77/77/54 79/79/55 78/78/12
f 80/80/30 81/81/32 82/82/56
f 81/81/32 83/83/36 82/82/56
f 84/84/37 85/85/36 86/86/38
f 85/85/36 87/87/32 86/86/38
f 88/88/17 89/89/57 90/90/19
f 89/89/57 91/91/58 90/90/19
f 92/92/59 93/93/60 94/94/58
f 93/93/60 95/95/23 94/94/58
f 96/96/1 97/97/1 98/98/61
f 99/99/14 100/100/45 101/101/46
f 102/102/62 103/103/63 104/104/51
f 105/105/64 106/106/51 107/107/28
f 108/108/65 109/109/48 110/110/9
f 111/111/66 112/112/67 113/113/15
f 114/114/22 115/115/51 116/116/68
